/* XPM */
static char *result[] = {
/* columns rows colors chars-per-pixel */
"32 32 18 1 ",
"  c #1A5ECD",
". c #1B7BED",
"X c #1BA4FE",
"o c #1BB8FF",
"O c #02C5FD",
"+ c #1BCDFF",
"@ c #2AD4FF",
"# c #03E4FF",
"$ c #4CD4FF",
"% c #60DEFF",
"& c #73E7FF",
"* c #8EECFF",
"= c #A3EAFF",
"- c #B2F0FF",
"; c #CCF6FF",
": c #E5FBFF",
"> c #F0FDFF",
", c None",
/* pixels */
",,,,,,,,,,,,,,,,,,,,,,,,,,,,,,,,",
",,,,,,,,,,,,,,,,,,,,,,,,,,,,,,,,",
",,,,,,,,,,,,,,,,,,,,,,,,,,,,,,,,",
",,,,,,,,,,,,,,#@XO,,,,,,,,,,,,,,",
",,,,,,,,,,,,,#@=@XO,,,,,,,,,,,,,",
",,,,,,,,,,,,#@-;&@XO,,,,,,,,,,,,",
",,,,,,,,,,,#@-:;$%@XO,,,,,,,,,,,",
",,,,,,,,,,#@->>-o@%@XO,,,,,,,,,,",
",,,,,,,,,#@-:>>-oX@%@XO,,,,,,,,,",
",,,,,,,,#@-:>>:&XXX@%@XO,,,,,,,,",
",,,,,,,#@-:>>>;&XXXX%&@XO,,,,,,,",
",,,,,,#@-::;>>;&o+XX@=&@XO,,,,,,",
",,,,,#@-::;:>:*=o++Xo&=&@XO,,,,,",
",,,,#@-::;=>>;*=o%@+X@&-&@XO,,,,",
",,,#@-::;*;>>;*=o%o++o&*-&@XO,,,",
",,,@=:>;**:>:*--o&&o++@&*=%+X,,,",
",,,@&-::;;>>;*:-o&=@o+@&=&+X.,,,",
",,,#@o&-:>>>;=:-o&-&@@%%@X..O,,,",
",,,,#+o@&-::*;>-@&-&&%+X. .O,,,,",
",,,,,#++@o&-*:>-$&=&@X.  .O,,,,,",
",,,,,,#+++Xo&-:-@%@X..  .O,,,,,,",
",,,,,,,#++XXX@&=@X.. . .O,,,,,,,",
",,,,,,,,#++XX+@X...   .O,,,,,,,,",
",,,,,,,,,#+XXX+X ..  .O,,,,,,,,,",
",,,,,,,,,,#+XX+X .  .O,,,,,,,,,,",
",,,,,,,,,,,#+XXX . .O,,,,,,,,,,,",
",,,,,,,,,,,,#+XX  .O,,,,,,,,,,,,",
",,,,,,,,,,,,,#+X .O,,,,,,,,,,,,,",
",,,,,,,,,,,,,,#+.O,,,,,,,,,,,,,,",
",,,,,,,,,,,,,,,,,,,,,,,,,,,,,,,,",
",,,,,,,,,,,,,,,,,,,,,,,,,,,,,,,,",
",,,,,,,,,,,,,,,,,,,,,,,,,,,,,,,,"
};
