/* XPM */
static char *result[] = {
/* columns rows colors chars-per-pixel */
"32 32 23 1 ",
"  c #3F1200",
". c #5A2D00",
"X c #764900",
"o c #003B57",
"O c #004362",
"+ c #004C6F",
"@ c #936500",
"# c #AE8200",
"$ c #88AB1D",
"% c #90B41F",
"& c #96BC20",
"* c #CA9D00",
"= c #D8AB00",
"- c #E3BA00",
"; c #A0C52D",
": c #A5C92E",
"> c #F2DF04",
", c #FFFF08",
"< c #005C87",
"1 c #006EA1",
"2 c #007EB9",
"3 c #008FD1",
"4 c #009CE5",
/* pixels */
"&%&&%&&:&&%%&&%&&$&%&&&&;&&&&&&%",
"&XXXX%&&;&XX&&&&%&&%XX&&%:&XXXX&",
"%X>==+++++==++++++++==+++++>==X%",
"%X>--+1111--+1111111--+1111>--@&",
"&@,,,<2222,,<2222222,,<2222,,,@:",
"&@,>><3333==<3333333==<3333,>>@;",
"&@,,,,,,,,,,,,,,,,,,,,,,,,,,,,@%",
"&@,*,,,,,,,*,,,,,,,,*,,,,,,,*,@&",
"%@,>>>>>>>>>>>>>>>>>>>>>>>>,>>X%",
"&@,>>XX@@#==XX@@@@##==XX@@#,>>X&",
"%X,--<4444--<4444444--<4444,--X&",
"%X,>><3333>><3333333>><3333,>>X&",
"&X>--<3333--<3333333--<3333>--X&",
"&X>==<2222==<2222222==<2222>==X%",
"&X>--+2222--+2222222--+2222>--X&",
"%.>==+1111==+1111111==+1111>==.%",
"&.>==+<<<<==+<<<<<<<==+<<<<>==.&",
"&.>==@=>>>##@=@@@@>>##@=>>>>==.&",
"&.-X*********@>>>>.@********X*.$",
"&.-*********@>****>.@*********.&",
": ..........>*. ..*> ......... &",
"; *@@@@@@@@ *#@  @#@ X@@@@@@@X &",
"& -X#######X @# .#@ X#######.X %",
"% -**ooooo@@o @@@@ o@@ooooo*#X &",
"& -**o++++-*oo    o+-*o++++-#X &",
"& -**o++++-*o+oooo++-*o++++-#X &",
"& -##oOOOO-#oOOOOOOO-#oOOOO-#X %",
"& -##oOOOO-#oOOOOOOO-#oOOOO*#X &",
"& -##@**--XX@****---XX@**--#@X %",
": -##@@@@@@@@@@@@@@@@@@@@@@@@X &",
"; -.@@@@@@@.@@@@@@@@.@@@@@@@.X &",
"& *@XXXXXXXXXXXXXXXXXXXXXXXXXX &"
};
