/* XPM */
static char *result[] = {
/* columns rows colors chars-per-pixel */
"32 32 19 1 ",
"  c #3F1200",
". c #5A2D00",
"X c #764900",
"o c #003B57",
"O c #004362",
"+ c #004C6F",
"@ c #936500",
"# c #AE8200",
"$ c #CA9D00",
"% c #D8AB00",
"& c #E3BA00",
"* c #F2DF04",
"= c #FFFF08",
"- c #005C87",
"; c #006EA1",
": c #007EB9",
"> c #008FD1",
", c #009CE5",
"< c None",
/* pixels */
"<XXXX<<<<<XX<<<<<<<<XX<<<<<XXXX<",
"<X*%%+++++%%++++++++%%+++++*%%X<",
"<X*&&+;;;;&&+;;;;;;;&&+;;;;*&&@<",
"<@===-::::==-:::::::==-::::===@<",
"<@=**->>>>%%->>>>>>>%%->>>>=**@<",
"<@============================@<",
"<@=$=======$========$=======$=@<",
"<@=************************=**X<",
"<@=**XX@@#%%XX@@@@##%%XX@@#=**X<",
"<X=&&-,,,,&&-,,,,,,,&&-,,,,=&&X<",
"<X=**->>>>**->>>>>>>**->>>>=**X<",
"<X*&&->>>>&&->>>>>>>&&->>>>*&&X<",
"<X*%%-::::%%-:::::::%%-::::*%%X<",
"<X*&&+::::&&+:::::::&&+::::*&&X<",
"<.*%%+;;;;%%+;;;;;;;%%+;;;;*%%.<",
"<.*%%+----%%+-------%%+----*%%.<",
"<.*%%@%***##@%@@@@**##@%****%%.<",
"<.&X$$$$$$$$$@****.@$$$$$$$$X$.<",
"<.&$$$$$$$$$@*$$$$*.@$$$$$$$$$.<",
"< ..........*$. ..$* ......... <",
"< $@@@@@@@@ $#@  @#@ X@@@@@@@X <",
"< &X#######X @# .#@ X#######.X <",
"< &$$ooooo@@o @@@@ o@@ooooo$#X <",
"< &$$o++++&$oo    o+&$o++++&#X <",
"< &$$o++++&$o+oooo++&$o++++&#X <",
"< &##oOOOO&#oOOOOOOO&#oOOOO&#X <",
"< &##oOOOO&#oOOOOOOO&#oOOOO$#X <",
"< &##@$$&&XX@$$$$&&&XX@$$&&#@X <",
"< &##@@@@@@@@@@@@@@@@@@@@@@@@X <",
"< &.@@@@@@@.@@@@@@@@.@@@@@@@.X <",
"< $@XXXXXXXXXXXXXXXXXXXXXXXXXX <",
"<<<<<<<<<<<<<<<<<<<<<<<<<<<<<<<<"
};
