/* XPM */
static char *result[] = {
/* columns rows colors chars-per-pixel */
"32 32 33 1 ",
"  c #2E1E22",
". c #483A3E",
"X c #125600",
"o c #217500",
"O c #534721",
"+ c #77584A",
"@ c #605458",
"# c #705654",
"$ c #767678",
"% c #8B5E4A",
"& c #9D704C",
"* c #9D725D",
"= c #8F7772",
"- c #509C00",
"; c #88AB1D",
": c #90B41F",
"> c #96BC20",
", c #87CB00",
"< c #A0C52D",
"1 c #A5C92E",
"2 c #D7906E",
"3 c #928A8C",
"4 c #A48D87",
"5 c #B7A099",
"6 c #B7B7BB",
"7 c #EEBE93",
"8 c #FFE1AF",
"9 c #D9D9DD",
"0 c #E7D1C7",
"q c #C3D5EF",
"w c #FFF7E1",
"e c #E6F7FF",
"r c white",
/* pixels */
">:>>:>>1>>::>>:>>;>:>>>><>>>>>>:",
">>::>:>><>1>>OOOOOOO>;>>:1>1>::>",
":::>>:>:>>>OO#######OO>>:>>>:>>:",
":>><>>:>;OO#==55===5=#OO>>:>;>1>",
">1<>>:>>O#==5055555=55=#O;::>:<1",
">1>>>:>O#=5500055555555=#O:>;>><",
">>>:;>O#=55=055505=55=05=#O>:>>:",
">;>>;:O=55=55=#00=50=#5#==O>>::>",
":>:>:O#=5==55#=05#05#5=##=#O1>>:",
">:>:<O#===55=#55=#5=#=#2#=#O:>>>",
":;:>>O#=#=5=#=55##=#2#22###O>::>",
":;>>>O#=#==##=5=#2#27782O#O:;:>>",
">::>:O###==#OO=#27OOO787OO:>>>>>",
">:>>:O###=#O87O=77q 9287O>:>>1>:",
">>1>>O###=#O8&7=w8e 3287O1>>1<>>",
":>>1>1O####O7&8=wwr..787O<1><>>:",
">:>:>>O#####O22wwww@@882O:<>:>;>",
">:>>>;:O#####7wwwwww887&O>>>>:>>",
">>>1>>>:O###&28wwww8872O:>>:>>>;",
">1<>>:>;>OO#OO&277722&O>>:;:><>>",
"1<>>::>;>;:O$6OOOOOOOO:>:>;>>>1>",
"<>>>>>>:>>>$6r9-,,,-6O>:>:>::><>",
">:>:>>1>>:>$9rro,,,,oX>>;:>>;>>:",
":>>>:><>1>:$9rr$,,,,-X>>>>>>>:>>",
">;>;:>>::>>$9r9$-,,-oX>:>>1>>>:>",
">>:;>>:>>:>O788Ooooo#O<1>1<>>:;>",
">:>>>>>>:>1O288O554#O:><><::>>>:",
">><>>1>1>:<1OOO=55=O>;>>>::>>:>>",
">1:>><1>>:><>O#=4=#O>>>>:>;>>1>:",
"1<>>:><:::>>:O+%*%O1>>1>>>;:>>1>",
"<>:>>>:>>;>>>O+%**O<>1>>;:>>:><>",
">>>:>::>:>>1>:OOOO:>:>::>>:>>::>"
};
