/* XPM */
static char *result[] = {
/* columns rows colors chars-per-pixel */
"32 32 28 1 ",
"  c #5A7B01",
". c #699200",
"X c #729F00",
"o c #759710",
"O c #789B11",
"+ c #7A9D14",
"@ c #7BA800",
"# c #7CA012",
"$ c #80A316",
"% c #84A916",
"& c #80A118",
"* c #88AB1D",
"= c #90B41F",
"- c #8BAF20",
"; c #8FB220",
": c #96BC20",
"> c #8DC300",
", c #A1D700",
"< c #A0C52D",
"1 c #A5C92E",
"2 c #FFC124",
"3 c #FFD15E",
"4 c #FFDC80",
"5 c #FFFF80",
"6 c #EA9DE1",
"7 c #EFB2E8",
"8 c #F2C4EC",
"9 c #FFD8FF",
/* pixels */
":=:.87%. %>,@22,@,78688.>>.::::=",
"::.>66.%<23>>@@>.>>>@78@,>@1:==:",
"==$.@. =:342. O;%  .. ..@@%:=::=",
"=::<>:=:224343:<:87o  .>6.=:*:1:",
":1<>2@:3435243::>66.<1%. +43:=<1",
":1::@ @34244..%:.@. :761:>22.::<",
":44=*:.,>X34>>.%=*$@6766@.@. ::=",
"434:*=%  . X>,@ >2 >,66>,@.@6.=4",
"45244::=$o  .776 .%@>>@@>.%. ::3",
"24323.6> =:%68666@:$.. O%@76$@@@",
"@44>:-. 43%@66786>:44=:=@6766,>>",
"@>>@::->22..>@66>@14344=.>66>>@@",
" ..%=:=.@. :-O ..442543:=+o ..OO",
"> ::66=*:%.>6.$-@32342:<::=::1.6",
" :17676*=:%@. ::>,@44,@.>2 :88:.",
"=:@6786@:<32:=:87>>@@>.%..;:8788",
":@,>66,>%243::>66.. O+:=%@886987",
":.>@@>>343422:.@. %::=:87>76786.",
".:%& ..3425343.+::132:>66,>X88>>",
"@1<::=:..44243> %@2322@@.  . X>,",
";<43==@,>43.X>. @,>22,>:=:+O  ..",
"<>22.:.>X.  .. %.>@@>>@ 2> =76<:",
":.@. :;   O%%<1@2.. ..#%. @6766@",
"=:::=:.>6.=::88$. %$:66:%@,>66,>",
":@.+=:% .%:8878::::@7676@.>@@>>@",
"@>2> 776:=:789688*=>6786,@-O ..%",
":  .68666:1>68767@:@>66@>.==:::=",
"::<:66786@@@>88@>.:$.. O%==::=::",
":1=:@,66@,>-.. o%1::67%.>6 %:1:=",
"1<::.>@@>>@:=::.>2 ;786%. +=::1:",
"<:=::%o ..%::32:. %668787=::=:<:",
":::=:=.>2 @@2432=.7879687:=::==:"
};
