/* XPM */
static char *result[] = {
/* columns rows colors chars-per-pixel */
"32 32 16 1 ",
"  c #5A7B01",
". c #5B7B02",
"X c #699200",
"o c #729F00",
"O c #7BA800",
"+ c #8DC300",
"@ c #A1D700",
"# c #FFC124",
"$ c #FFD15E",
"% c #FFDC80",
"& c #FFFF80",
"* c #EA9DE1",
"= c #EFB2E8",
"- c #F2C4EC",
"; c #FFD8FF",
": c None",
/* pixels */
":::X-=:X :+@O##@O@=-*--X++X:::::",
"::X+**X::#$++OO+X+++O=-O@+O:::::",
":::XOX ::$%#X .::  XX XXOO::::::",
"::::+:::##%$%$:::-=.  X+*X::::::",
":::+#O:$%$&#%$::+**X:::X :%$::::",
"::::O O$%#%%XX::XOX :=*::+##X:::",
":%%:::X@+o$%++X::::O*=**OXOX :::",
"%$%::::  X o+@O +# +@**+@OXO*X:%",
"%&#%%::::.  X==* X:O++OO+X:X ::$",
"#%$#$X*+ :::*-***O::XX .:O=*:OOO",
"O%%+::X %$:O**=-*+:%%:::O*=**@++",
"O++O:::+##XX+O**+O:%$%%:X+**++OO",
" XX::::XOX ::. XX%%#&%$:::. XX..",
"+ ::**::::X+*X::O$#$%#::::::::X*",
" ::=*=*::::OX ::+@O%%@OX+# :--:X",
"::O*=-*O::$#:::-=++OO+X:XX::-=--",
":O@+**@+:#%$::+**XX .::::O--*;-=",
":X+OO++$%$%##:XOX :::::-=+=*=-*X",
"X::. XX$%#&$%$X::::$#:+**@+o--++",
"O::::::XX%%#%$+ :O#$##OOX  X o+@",
"::%$::O@+%$Xo+X O@+##@+::::.  XX",
":+##X:X+oX  XX :X+OO++O #+ :=*::",
":XOX ::   .::::O#XX XX::X O*=**O",
"::::::X+*X:::--:X :::**::O@+**@+",
":OX:::: X::--=-::::O=*=*OX+OO++O",
"O+#+ ==*:::=-;*--::+*=-*@O:. XX:",
":  X*-***::+*-=*=O:O+**O+X::::::",
"::::**=-*OOO+--O+X::XX .::::::::",
"::::O@**O@+:XX .::::*=:X+* :::::",
"::::X+OO++O::::X+# :=-*:X ::::::",
"::::::. XX:::$#:X :**-=-=:::::::",
"::::::X+# OO#%$#:X=-=;*-=:::::::"
};
