/* XPM */
static char *result[] = {
/* columns rows colors chars-per-pixel */
"32 32 98 2 ",
"   c #75B73D",
".  c #7CBF3F",
"X  c #5DBE64",
"o  c #5FBD74",
"O  c #6FC553",
"+  c #73CB54",
"@  c #7BD25E",
"#  c #7FD55E",
"$  c #55C772",
"%  c #5ACC73",
"&  c #5ED174",
"*  c #63C565",
"=  c #67CA66",
"-  c #6ED06F",
";  c #64D77C",
":  c #67D97D",
">  c #71D370",
",  c #88AB1D",
"<  c #90B41F",
"1  c #81B029",
"2  c #88B82B",
"3  c #96BC20",
"4  c #8EC02C",
"5  c #81C53F",
"6  c #97C839",
"7  c #9CCC39",
"8  c #A0C52D",
"9  c #A5C92E",
"0  c #89CD4B",
"q  c #8ED14C",
"w  c #326FAA",
"e  c #3371AA",
"r  c #3673AD",
"t  c #3ABAA0",
"y  c #3DBEA1",
"u  c #3FC1A1",
"i  c #3ED0A2",
"p  c #46C7A7",
"a  c #40D3A2",
"s  c #45D7A8",
"d  c #47D9A8",
"f  c #3184C4",
"g  c #3386C4",
"h  c #3488C4",
"j  c #378AC7",
"k  c #31A5D1",
"l  c #33A7D1",
"z  c #34A9D1",
"x  c #36AAD4",
"c  c #37ABD4",
"v  c #31B5D2",
"b  c #33B7D2",
"n  c #34B9D2",
"m  c #37BBD5",
"M  c #31C6D2",
"N  c #33C8D2",
"B  c #34CAD2",
"V  c #36CBD5",
"C  c #37CCD5",
"Z  c #3DCCD2",
"A  c #3FCED2",
"S  c #5ACED2",
"D  c #40D0D2",
"F  c #42D1D5",
"G  c #43D2D5",
"H  c #5BD0D2",
"J  c #68D4D0",
"K  c #6AD5D0",
"L  c #6BD7D1",
"P  c #6EDAD4",
"I  c #79DDD2",
"U  c #7ADFD2",
"Y  c #7DE1D5",
"T  c #9DDDD2",
"R  c #9FDFD2",
"E  c #8EE1D1",
"W  c #90E2D2",
"Q  c #92E4D4",
"!  c #A0E1D2",
"~  c #A2E2D5",
"^  c #A3E3D5",
"/  c #A9E2D2",
"(  c #ABE4D2",
")  c #ACE6D2",
"_  c #AEE7D5",
"`  c #AFE8D5",
"'  c #D1EACD",
"]  c #D3ECCE",
"[  c #D4EDCE",
"{  c #C0E9D2",
"}  c #C1EBD2",
"|  c #C4EDD5",
" . c #DCEDD3",
".. c #DDEED3",
"X. c #D7F0D1",
"o. c #DEF0D3",
"O. c #E0F2D6",
"+. c #E1F2D6",
/* pixels */
"3 < 3 3 < 3 3 9 3 3 < < 4 4 2 4 4 1 4 2 3 3 3 3 8 3 3 3 3 3 3 < ",
"3 3 < < 3 < 3 3 8 3 9 4 4 4 5 5 . 5 4 2 4 , 3 3 < 9 3 9 3 < < 3 ",
"< < < 3 3 < 3 < 3 3 4 1 5 O + > = = O 5 4 2 3 3 < 3 3 3 < 3 3 < ",
"< 3 3 8 3 3 < 3 , 4 2   + % a F z y : O 5 4 2 3 3 3 < 3 , 3 9 3 ",
"3 9 8 3 3 < 3 3 4 4 . + & a D ! A z u & @ q 4 2 3 , < < 3 < 8 9 ",
"3 9 3 3 3 < 3 7 7 5 + & d D ) } U Z z y & @ 5 7 4 , < 3 , 3 3 8 ",
"3 3 3 < , 3 2 4 0 # & d D / ] } S J A z u & @ . 2 4 3 3 < 3 3 < ",
"3 , 3 3 , 2 4 . + ; i G (  .o.( n D K A z u & + 5 2 4 3 3 < < 3 ",
"< 3 < 3 2 4 5 O % i A ) [ ..../ n l D L Z l u % + 0 4 4 9 3 3 < ",
"3 < 3 2 6 q + & a A ) [ o.o.] I z z z A J D z u & + q 2 2 3 3 3 ",
"< , 2 4 5 @ : a G ) [ ..o...} U z c z z L I D l u & + 5 4 2 < 3 ",
"< 1 4 5 + & s G ) [ ] } o.o.{ U n B c z D ! U A z y & O   2 4 3 ",
"4 2 . + % a A ) [ ] } [ O.[ W ^ b B V z m I R U A k y & + 5 4 4 ",
"4 2 + & i D ( ' [ } ! o.o.| E ~ b L D N z D U _ U D l u & # 4 2 ",
"4 5 # a D ` [ ' { W } ..o.} W ! n K n N B b U W _ Y D z p - 5 4 ",
"2 5 = G ! X.o.} W Q [ o.[ E ) ( b U U n N M D U W ~ P B x o 5 2 ",
"4 . = A U ) [ ] } } +.o.} W ] ( n U T D n M D I ! I V z g o   4 ",
"4 . + a D v I ) [ o.O.o.| ! [ / b U ) U D A L L D z h h u * 5 4 ",
"4 4 + : a B n A U ) [ ] W } ../ D U ` U U L B z g e h y = + 4 1 ",
"4 7 0 + & i B M D b U ) E [ o.) H I ~ Y D z j e e g t % + 0 4 4 ",
"9 6 4 5 O % a M B M l n U ) [ ( D K D x g j w e g u $ + 5 4 7 3 ",
"8 3 4 4 5 + & i B B z l z G U ! D z g g e h e g u % + . 2 4 8 3 ",
"3 < 3 2 4 5 # & a N B z z V G z h j h e e w h u $ O 5 4 1 3 3 < ",
"< 3 3 3 2 4 0 + : a N z z z V l r g h w e h u & + 5 4 4 3 < 3 3 ",
"3 , 3 , < 4 4 . O & a M l z B z e h e e h p & O 5 4 7 3 3 3 < 3 ",
"3 3 < , 3 3 2 4 5 O & a B l z z w f w h u & @ q 4 7 8 3 3 < , 3 ",
"3 < 3 3 3 3 3 4 2 5 # & a B z z w e h u % O 5 6 4 8 < < 3 3 3 < ",
"3 3 8 3 3 9 3 9 4 2 0 # & a C z e h u % +   4 4 3 < < 3 3 < 3 3 ",
"3 9 < 3 3 8 9 3 3 2 4 0 + : i N h p = + 5 4 4 3 < 3 , 3 3 9 3 < ",
"9 8 3 3 < 3 8 < < < 4 4 . + + X o = @ q 4 4 9 3 3 3 , < 3 3 9 3 ",
"8 3 < 3 3 3 < 3 3 , 3 4 4 4 . 5 . 5 4 6 4 9 3 3 , < 3 3 < 3 8 3 ",
"3 3 3 < 3 < < 3 < 3 3 9 3 < < 3 < 3 < 3 < 3 < < 3 3 < 3 3 < < 3 "
};
