/* XPM */
static char *result[] = {
/* columns rows colors chars-per-pixel */
"32 32 33 1 ",
"  c #2E1E22",
". c #483A3E",
"X c #125600",
"o c #217500",
"O c #534721",
"+ c #77584A",
"@ c #605458",
"# c #705654",
"$ c #767678",
"% c #8B5E4A",
"& c #9D704C",
"* c #9D725D",
"= c #8F7772",
"- c #509C00",
"; c #88AB1D",
": c #90B41F",
"> c #96BC20",
", c #87CB00",
"< c #A0C52D",
"1 c #A5C92E",
"2 c #D7906E",
"3 c #928A8C",
"4 c #A48D87",
"5 c #B7A099",
"6 c #B7B7BB",
"7 c #EEBE93",
"8 c #FFE1AF",
"9 c #D9D9DD",
"0 c #E7D1C7",
"q c #C3D5EF",
"w c #FFF7E1",
"e c #E6F7FF",
"r c white",
/* pixels */
">:>>:>>1>>::>>:>>;>:>>>><>>>>>>:",
">>::>:>><>1>>OOOOOOO>;>>:1>1>::>",
":::>>:>:>>>OO#######OO>>:>>>:>>:",
":>><>>:>;OO#=55=#=55=#OO>>:>;>1>",
">1<>>:>>O#=50055=55005=#O;::>:<1",
">1>>>:>O#=5005555555005=#O:>;>><",
">>>:;>O#=5=550=555=055=5=#O>:>>:",
">;>>;:O==#5=0=#5=5#=0=5#==O>>::>",
":>:>:O#=#==55#5=#=5#55==#=#O1>>:",
">:>:<O##=5#5=#5#2#5#=5#5=##O:>>>",
":;:>>O##=5#=#2#7w7#2#=#5=##O>::>",
":;>>>O###=##287www782##=###O;:>>",
">::>:O#2##2OOO78887OOO2##2#O>>>>",
">:>>:>O2#27q 9788879 q72#2O>>1>:",
">>1>>1>O#&7e 3788873 e7&#O>>1<>>",
":>>1>1>>O&7r..8www8..r7&O<1><>>:",
">:>:>>>:>O27@@wwwww@@72O>:<>:>;>",
">:>>>;:>>$O278wwwww872O$>>>>>:>>",
">>>1>>>:$6XO&78www87&OX6$>>:>>>;",
">1<>>:>$9ro-OO27772OO-or9$;:><>>",
"1<>>::$6rr-,,oOOOOOo,,-rr6$>>>1>",
"<>>>>>$rr9o,,,-696-,,,o9rr$::><>",
">:>:>$6r96X-,,,oXo,,,-X69r6$;>>:",
":>>>:O&96$X-,,,-o-,,,-X$69&O>:>>",
">;>;:O88&OOo-,-oXo-,-oOO&88O>>:>",
">>:;>O87O:O=ooo===ooo=O1O78O>:;>",
">:>>>>OO:>O=5=#####=5=O<>OO:>>>:",
">><>>1>1>:O#54#OOO#45#O>>::>>:>>",
">1:>><1>>:O#4=#O>O#=4#O>:>;>>1>:",
"1<>>:><:::>O%*+O>O+*%O1>>>;:>>1>",
"<>:>>>:>>;>O**%O:O%**O>>;:>>:><>",
">>>:>::>:>>1OOO>:>OOO>::>>:>>::>"
};
