/* XPM */
static char *result[] = {
/* columns rows colors chars-per-pixel */
"32 32 26 1 ",
"  c #125600",
". c #217500",
"X c #534721",
"o c #77584A",
"O c #705654",
"+ c #767678",
"@ c #8B5E4A",
"# c #9D704C",
"$ c #9D725D",
"% c #8F7772",
"& c #509C00",
"* c #88AB1D",
"= c #90B41F",
"- c #96BC20",
"; c #87CB00",
": c #A0C52D",
"> c #A5C92E",
", c #D7906E",
"< c #A48D87",
"1 c #B7A099",
"2 c #B7B7BB",
"3 c #EEBE93",
"4 c #FFE1AF",
"5 c #D9D9DD",
"6 c #E7D1C7",
"7 c white",
/* pixels */
"-=--=-->--==--=--*-=----:------=",
"--==-=--:->--XXXXXXX-*--=>->-==-",
"===--=-=---XXOOOOOOOXX--=---=--=",
"=--:--=-*XXO%11%O%11%OXX--=-*->-",
"->:--=--XO%16611%11661%OX*==-=:>",
"->---=-XO%16611%%%11661%OX=-*--:",
"---=*-XO%1%11611%11611%1%OX-=--=",
"-*--*=X%%O16611%%%11661O%%X--==-",
"=-=-=XO%O%1161%1%1%1611%O%OX>--=",
"-=-=:XOO%1%1161%1%1611%1%OOX=---",
"=*=--XOO%1%16611111661%1%OOX-==-",
"=*---XOOO%%11116661111%%OOOX*=--",
"-==-=XO,O%O1%1116111%1O%O,OX----",
"-=--=-X,OOO%%1%111%1%%OOO,X-->-=",
"-->-->-XOOO%O%%%1%%%O%OOOX-->:--",
"=-->->--XOOOO%O%%%O%OOOOX:>-:--=",
"-=-=---=-XOOOOOO%OOOOOOX-=:-=-*-",
"-=---*=--+XOXOOOOOOOXOX+-----=--",
"--->---=+2 XXXOXOXOXXX 2+--=---*",
"->:--=-+57.&.XX.X.XX.&.75+*=-:--",
">:--==+277&;;&.&.&.&;;&772+--->-",
":-----+775.;;;;;;;;;;;.577+==-:-",
"-=-=-+2752 ;;;;;;;;;;; 2572+*--=",
"=---=X#52+ &;;;;;;;;;& +25#X-=--",
"-*-*=X44#XX &;;;;;;;& XX#44X--=-",
"--=*-X43X=X% ..&&&.. %X>X34X-=*-",
"-=----XX=-X%1%OOOOO%1%X:-XX=---=",
"--:-->->-=XO<<OXXXO<<OX--==--=--",
"->=--:>--=XO%%OX-XO%%OX-=-*-->-=",
">:--=-:===-X@$oX-Xo$@X>---*=-->-",
":-=---=--*-X$$@X=X@$$X--*=--=-:-",
"---=-==-=-->XXX-=-XXX-==--=--==-"
};
