/* XPM */
static char *result[] = {
/* columns rows colors chars-per-pixel */
"32 32 29 1 ",
"  c #2E1E22",
". c #483A3E",
"X c #125600",
"o c #217500",
"O c #534721",
"+ c #77584A",
"@ c #605458",
"# c #705654",
"$ c #767678",
"% c #8B5E4A",
"& c #9D704C",
"* c #9D725D",
"= c #8F7772",
"- c #509C00",
"; c #87CB00",
": c #D7906E",
"> c #928A8C",
", c #A48D87",
"< c #B7A099",
"1 c #B7B7BB",
"2 c #EEBE93",
"3 c #FFE1AF",
"4 c #D9D9DD",
"5 c #E7D1C7",
"6 c #C3D5EF",
"7 c #FFF7E1",
"8 c #E6F7FF",
"9 c white",
"0 c None",
/* pixels */
"0000000000000OOOOOOO000000000000",
"00000000000OO#######OO0000000000",
"000000000OO#=<<=#=<<=#OO00000000",
"00000000O#=<55<<=<<55<=#O0000000",
"0000000O#=<55<<<<<<<55<=#O000000",
"000000O#=<=<<5=<<<=5<<=<=#O00000",
"000000O==#<=5=#<=<#=5=<#==O00000",
"00000O#=#==<<#<=#=<#<<==#=#O0000",
"00000O##=<#<=#<#:#<#=<#<=##O0000",
"00000O##=<#=#:#272#:#=#<=##O0000",
"00000O###=##:3277723:##=###O0000",
"00000O#:##:OOO23332OOO:##:#O0000",
"000000O:#:26 4233324 62:#:O00000",
"0000000O#&28 >23332> 82&#O000000",
"00000000O&29..37773..92&O0000000",
"000000000O:2@@77777@@2:O00000000",
"000000000$O:237777732:O$00000000",
"00000000$1XO&2377732&OX1$0000000",
"0000000$49o-OO:222:OO-o94$000000",
"000000$199-;;oOOOOOo;;-991$00000",
"000000$994o;;;-141-;;;o499$00000",
"00000$1941X-;;;oXo;;;-X1491$0000",
"00000O&41$X-;;;-o-;;;-X$14&O0000",
"00000O33&OOo-;-oXo-;-oOO&33O0000",
"00000O32O0O=ooo===ooo=O0O23O0000",
"000000OO00O=<=#####=<=O00OO00000",
"0000000000O#<,#OOO#,<#O000000000",
"0000000000O#,=#O0O#=,#O000000000",
"00000000000O%*+O0O+*%O0000000000",
"00000000000O**%O0O%**O0000000000",
"000000000000OOO000OOO00000000000",
"00000000000000000000000000000000"
};
