/* XPM */
static char *result[] = {
/* columns rows colors chars-per-pixel */
"33 32 166 2 ",
"   c #7D6D38",
".  c #7D6C39",
"X  c #7D6D39",
"o  c #7E6D39",
"O  c #7D6E38",
"+  c #7D6E39",
"@  c #7E6E38",
"#  c #7E6F38",
"$  c #7E6F39",
"%  c #7E7037",
"&  c #7F7137",
"*  c #7E7236",
"=  c #7F7336",
"-  c #7F7437",
";  c #7E7038",
":  c #7E7138",
">  c #817735",
",  c #807536",
"<  c #807636",
"1  c #807D31",
"2  c #817935",
"3  c #807238",
"4  c #8F7F3F",
"5  c #8E7B41",
"6  c #8E7A42",
"7  c #8E7B42",
"8  c #8E7D40",
"9  c #8E7C41",
"0  c #8E7D41",
"q  c #8E7E40",
"w  c #8E7C42",
"e  c #90B31F",
"r  c #90B41F",
"t  c #888F2E",
"y  c #889729",
"u  c #89922D",
"i  c #88902E",
"p  c #8D9F29",
"a  c #8F992F",
"s  c #838131",
"d  c #848432",
"f  c #8C8D34",
"g  c #8F8C37",
"h  c #8E863B",
"j  c #8E823D",
"k  c #8E833D",
"l  c #8F833D",
"z  c #8F813E",
"x  c #8F803F",
"c  c #8F853D",
"v  c #918F37",
"b  c #91873E",
"n  c #908E38",
"m  c #919733",
"M  c #929932",
"N  c #949F32",
"B  c #96973A",
"V  c #99963D",
"C  c #99953E",
"Z  c #99943F",
"A  c #989C38",
"S  c #99983C",
"D  c #90AC24",
"F  c #91AD25",
"G  c #92AA28",
"H  c #94AA29",
"J  c #94A92A",
"K  c #97AB2D",
"L  c #97AA2E",
"P  c #90B320",
"I  c #91B321",
"U  c #93B423",
"Y  c #95B623",
"T  c #93B026",
"R  c #95B225",
"E  c #97B227",
"W  c #96B724",
"Q  c #96BB20",
"!  c #96BA21",
"~  c #96BB21",
"^  c #96B922",
"/  c #97BA23",
"(  c #96BC20",
")  c #97B924",
"_  c #99B628",
"`  c #94A031",
"'  c #93A431",
"]  c #98A532",
"[  c #98A035",
"{  c #99A734",
"}  c #9BA737",
"|  c #9CAE33",
" . c #9DA13E",
".. c #9FA33E",
"X. c #9FA73C",
"o. c #9EAA38",
"O. c #9BB030",
"+. c #9FB333",
"@. c #A6BF36",
"#. c #A2B739",
"$. c #A6B93A",
"%. c #A0C52D",
"&. c #A5C72F",
"*. c #A5C82E",
"=. c #A1C130",
"-. c #A5C332",
";. c #A5C531",
":. c #908240",
">. c #988747",
",. c #978B43",
"<. c #988F41",
"1. c #988D42",
"2. c #998F42",
"3. c #998E43",
"4. c #998F43",
"5. c #988945",
"6. c #998B44",
"7. c #998B45",
"8. c #998847",
"9. c #9A8947",
"0. c #998A46",
"q. c #9A8A46",
"w. c #998748",
"e. c #9A8649",
"r. c #9A8749",
"t. c #9A844A",
"y. c #9A854A",
"u. c #9A844B",
"i. c #9A854B",
"p. c #9A864A",
"a. c #9A874A",
"s. c #9B874A",
"d. c #9A8848",
"f. c #979040",
"g. c #989040",
"h. c #999042",
"j. c #9C9443",
"k. c #A19D46",
"l. c #A29B49",
"z. c #A39D49",
"x. c #A59A4D",
"c. c #A5984F",
"v. c #A6994F",
"b. c #A59A4E",
"n. c #A69651",
"m. c #A69752",
"M. c #A79653",
"N. c #A79554",
"B. c #A79455",
"V. c #A79555",
"C. c #A79654",
"Z. c #A79456",
"A. c #A89356",
"S. c #A89357",
"D. c #A89455",
"F. c #A89555",
"G. c #A89654",
"H. c #A89655",
"J. c #A89456",
"K. c #A89556",
"L. c #A69851",
"P. c #A79C50",
"I. c #A1A243",
"U. c #A2A243",
"Y. c #A2A046",
"T. c #A4AE40",
/* pixels */
"r ( r ( ! T L i P.u.S.u.u.u.. . u.6 6 S.S.S.u.. . j.M o.O./ ~ ( r ",
"( ( K D D J y , S.S.S.S.S.u.u.6 6 . . u.S.u.. # m.0.:.c $.^ g I ( ",
"r r ` a z./ ` 3.5 S.S.S.u.. . u.u.u.u.. . 6 S.S.N.J.7.[ m 7.u _ r ",
"Q e U S K.N.x.c.L.>.6 . . . u.S.S.S.u.u.6 6 u.J.N.M.N.n.h.1 F +.Q ",
"&.E } ' 4.J.B.0 9 7 u.u.. u.S.S.S.u.u.u.u.u.. S.S.S.S.7.g.R k.T.&.",
"#.] ..c + > = X i.u.u.u.6 u.S.S.S.S.S.S.u.u.. u.S.J.B.w.8 ,.V.Y.#.",
"f.Y.A 2 5 u.u.. S.u.S.u.u.. u.S.S.S.u.u.u.6 u.6 6 X 6 x X . # # f.",
"< x 5.# 8 A.u.6 S.S.S.S.u.u.6 u.. 6 . 6 6 S.u.u.6 6 S.p.q y.y.w.< ",
"e.y.9 O y.S.S.6 S.S.S.S.S.u.6 . u.u.u.u.. S.S.u.. S.S.J.; G.D.d.e.",
"u.u.6 6 6 . . u.u.S.S.u.. . u.6 S.S.u.u.. . . . 6 u.S.u.7 Z.J.y.u.",
"S.u.6 u.u.u.. 6 6 u.. . u.u.u.6 u.S.S.u.S.. u.S.u.. . . u.S.S.u.S.",
"u.u.6 S.u.u.u.6 . . u.S.S.u.S.u.. . 6 6 u.. S.u.S.u.u.. 6 6 S.S.u.",
"6 6 u.S.S.S.u.. u.u.. u.S.S.u.6 u.u.u.6 6 . S.S.u.u.6 6 u.u.. 6 6 ",
"u.u.. . 6 6 . . S.S.u.6 6 . 6 u.S.u.u.u.u.6 S.S.u.6 6 u.S.u.6 u.u.",
"u.. u.u.u.u.6 . . 6 6 u.u.. . S.S.S.S.u.u.6 S.S.S.. S.S.u.u.6 u.u.",
"6 S.S.u.S.6 6 u.S.u.S.u.u.u.. . S.S.u.u.u.. u.S.u.6 S.S.S.u.u.6 6 ",
"u.S.S.S.u.. S.S.S.S.u.S.u.6 6 6 u.S.S.S.u.. 6 6 . . u.S.S.S.u.6 u.",
". 6 . . 6 . u.S.S.S.S.u.6 . u.6 6 u.. . 6 6 u.u.u.. . 6 6 . . 6 . ",
"6 u.u.S.u.u.6 6 . u.6 6 u.S.u.u.6 . . S.u.S.u.u.u.u.u.6 . u.u.u.6 ",
"6 u.S.u.S.u.u.u.. . u.S.S.u.u.S.u.u.6 u.S.S.S.S.S.u.u.6 . u.u.6 6 ",
"u.S.S.S.u.u.u.u.u.. S.S.S.S.S.u.u.u.6 . 6 6 S.S.u.u.u.6 6 S.. 6 u.",
"S.S.S.S.S.u.S.S.u.6 6 . 6 S.S.S.u.u.. u.u.u.6 6 6 . u.7 y.X . u.S.",
"S.S.S.u.u.S.6 6 S.6 u.u.u.6 6 S.S.u.. S.S.S.S.u.u.6   y.y.y.5 6 S.",
"X S.A.A.u.6 6 u.. u.S.S.u.u.6 u.u.. u.S.S.S.u.u.u.y.5 M.u.C.y.; X ",
"z # % : O y.V.y.. S.S.S.S.u.u.. . 6 6 S.S.S.S.S.u.. 5 F.m.V.y.8.z ",
"I.v.2.e.6 + A.B.6 u.S.S.S.S.. u.u.u.6 6 S.S.u.$ o A.a.w l x.c.f I.",
"G d s 4 c & 5 9 5 7 . . u.S.6 S.S.u.u.u.6 u.6 r.H.y.K.w.h 9.3.J G ",
"! t K  .d.4 3 y.s.u.u.. . 6 u.S.S.S.S.u.. . u.6 J.A.S.u.Z p j v ! ",
"P H ;.<.S.C b K.J.y.y.u.6 u.. u.S.S.u.. . u.u.u.6 6 J.S.r.n @.q.P ",
"( *.=.U.C N 0 K.B.S.y.6 u.u.u.. 6 6 6 u.S.S.D.p.u.5 7.* = v ) -.( ",
"( %.X.{ ~ b.m.9 u.: X 6 6 u.u.6 u.u.6 S.S.S.i.e.y.t.k [ V 1.Y %.( ",
"( ( ( ( P | B 6.- e.u.u.u.. . u.u.u.6 S.S.S.S.A.y.@ d.l.o.W r r ( "
};
