/* XPM */
static char *result[] = {
/* columns rows colors chars-per-pixel */
"32 32 33 1 ",
"  c #2E1E22",
". c #483A3E",
"X c #125600",
"o c #217500",
"O c #534721",
"+ c #77584A",
"@ c #605458",
"# c #705654",
"$ c #767678",
"% c #8B5E4A",
"& c #9D704C",
"* c #9D725D",
"= c #8F7772",
"- c #509C00",
"; c #88AB1D",
": c #90B41F",
"> c #96BC20",
", c #87CB00",
"< c #A0C52D",
"1 c #A5C92E",
"2 c #D7906E",
"3 c #928A8C",
"4 c #A48D87",
"5 c #B7A099",
"6 c #B7B7BB",
"7 c #EEBE93",
"8 c #FFE1AF",
"9 c #D9D9DD",
"0 c #E7D1C7",
"q c #C3D5EF",
"w c #FFF7E1",
"e c #E6F7FF",
"r c white",
/* pixels */
">:>>:>>1>>::>>:>>;>:>>>><>>>>>>:",
">>::>:>><>1>OOOOOOO:>;>>:1>1>::>",
":::>>:>:>>OO#######OO:>>:>>>:>>:",
":>><>>:>OO#=5===55==#OO>>>:>;>1>",
">1<>>:>O#=55=5555505==#O>;::>:<1",
">1>>>:O#=5555555500055=#O;:>;>><",
">>>:;O#=50=55=505550=55=#O>>:>>:",
">;>>;O==#5#=05=00#=55=55=O>>>::>",
":>:>O#=##=5#50#50=#55==5=#O>1>>:",
">:>:O#=#2#=#=5#=55#=55===#O::>>>",
":;:>O###22#2#=##55=#=5=#=#O>>::>",
":;>>>O#O28772#2#=5=##==#=#O:;:>>",
">::>:>OO787OOO72#=OO#==###O>>>>>",
">:>>:>:O7829 q77=O78O#=###O>>1>:",
">>1>>1>O7823 e8w=7&8O#=###O>1<>>",
":>>1>1>O787..rww=8&7O####O1><>>:",
">:>:>>>O288@@wwww22O#####O<>:>;>",
">:>>>;:O&788wwwwww7#####O>>>>:>>",
">>>1>>>:O2788wwww82&###O:>>:>>>;",
">1<>>:>;>O&227772&OO#OO>>:;:><>>",
"1<>>::>;>;OOOOOOOO6$O1:>:>;>>>1>",
"<>>>>>>:>>O6-,,,-9r6$>>:>:>::><>",
">:>:>>1>>:Xo,,,,orr9$:>>;:>>;>>:",
":>>>:><>1>X-,,,,$rr9$>>>>>>>>:>>",
">;>;:>>::>Xo-,,-$9r9$1>:>>1>>>:>",
">>:;>>:>>:O#ooooO887O><1>1<>>:;>",
">:>>>>>>:>1O#455O882O:><><::>>>:",
">><>>1>1>:<1O=55=OOO>;>>>::>>:>>",
">1:>><1>>:><O#=4=#O>>>>>:>;>>1>:",
"1<>>:><:::>>:O%*%+O1>>1>>>;:>>1>",
"<>:>>>:>>;>>>O**%+O<>1>>;:>>:><>",
">>>:>::>:>>1>:OOOO:>:>::>>:>>::>"
};
